# This file uses centimeters as units for non-parametric coordinates.

mtllib glass.mtl
g default
v -1.669207 1.966190 0.037405
v 1.743723 1.966190 0.037405
v -1.669207 -3.920610 0.037405
v 1.743722 -3.920610 0.037405
v 0.000000 3.920610 0.037405
v 0.000000 -3.920610 0.037405
v -1.669207 1.966190 0.037405
v 0.000000 3.920610 0.037405
v 0.000000 -3.920610 0.037405
v -1.669207 -3.920610 0.037405
v 1.743723 1.966190 0.037405
v 1.743722 -3.920610 0.037405
v -1.669207 1.966190 -0.012595
v 0.000000 3.920610 -0.012595
v 0.000000 -3.920610 -0.012595
v -1.669207 -3.920610 -0.012595
v 1.743723 1.966190 -0.012595
v 1.743722 -3.920610 -0.012595
v -1.669207 1.966190 0.087405
v -1.669207 -3.920610 0.087405
v -0.000000 -3.920610 0.087405
v -0.000000 3.920610 0.087405
v 1.743722 -3.920610 0.087405
v 1.743723 1.966190 0.087405
vt 0.000000 0.000000
vt 0.447560 0.000000
vt 0.000000 1.000000
vt 0.447560 1.000000
vt 0.223780 0.000000
vt 0.223780 1.000000
vt 0.000000 0.000000
vt 0.223780 0.000000
vt 0.223780 1.000000
vt 0.000000 1.000000
vt 0.447560 0.000000
vt 0.447560 1.000000
vt 0.000000 0.000000
vt 0.223780 0.000000
vt 0.223780 1.000000
vt 0.000000 1.000000
vt 0.447560 0.000000
vt 0.447560 1.000000
vt 0.000000 0.000000
vt 0.223780 0.000000
vt 0.223780 1.000000
vt 0.000000 1.000000
vt 0.447560 0.000000
vt 0.447560 1.000000
vt 0.000000 0.000000
vt 0.000000 1.000000
vt 0.223780 1.000000
vt 0.223780 0.000000
vt 0.447560 1.000000
vt 0.447560 0.000000
vt 0.000000 0.000000
vt 0.223780 0.000000
vt 0.223780 1.000000
vt 0.000000 1.000000
vt 0.447560 0.000000
vt 0.447560 1.000000
vn 0.000000 0.000000 -1.000000
vn 0.000000 0.000000 -1.000000
vn 0.000000 0.000000 -1.000000
vn 0.000000 0.000000 -1.000000
vn 0.000000 0.000000 -1.000000
vn 0.000000 0.000000 -1.000000
vn -0.000000 0.000000 1.000000
vn -0.000000 0.000000 1.000000
vn -0.000000 0.000000 1.000000
vn -0.000000 0.000000 1.000000
vn 0.000000 0.000000 1.000000
vn 0.000000 0.000000 1.000000
vn -0.760411 0.649442 0.000000
vn -0.760411 0.649442 0.000000
vn -0.760411 0.649442 0.000000
vn -0.760411 0.649442 0.000000
vn 0.000000 -1.000000 -0.000000
vn 0.000000 -1.000000 -0.000000
vn 0.000000 -1.000000 -0.000000
vn 0.000000 -1.000000 -0.000000
vn -1.000000 -0.000000 0.000000
vn -1.000000 -0.000000 0.000000
vn -1.000000 -0.000000 0.000000
vn -1.000000 -0.000000 0.000000
vn 0.746183 0.665741 0.000000
vn 0.746183 0.665741 0.000000
vn 0.746183 0.665741 0.000000
vn 0.746183 0.665741 0.000000
vn 1.000000 -0.000000 0.000000
vn 1.000000 -0.000000 0.000000
vn 1.000000 -0.000000 0.000000
vn 1.000000 -0.000000 0.000000
vn 0.000000 -1.000000 0.000000
vn 0.000000 -1.000000 0.000000
vn 0.000000 -1.000000 0.000000
vn 0.000000 -1.000000 0.000000
vn -0.000000 0.000000 1.000000
vn -0.000000 0.000000 1.000000
vn -0.000000 0.000000 1.000000
vn -0.000000 0.000000 1.000000
vn 0.000000 0.000000 1.000000
vn 0.000000 0.000000 1.000000
vn 0.000000 0.000000 -1.000000
vn 0.000000 0.000000 -1.000000
vn 0.000000 0.000000 -1.000000
vn 0.000000 0.000000 -1.000000
vn 0.000000 0.000000 -1.000000
vn 0.000000 0.000000 -1.000000
vn 0.000000 0.000000 0.000000
vn 0.000000 0.000000 0.000000
vn 0.000000 0.000000 0.000000
vn 0.000000 0.000000 0.000000
vn 0.000000 0.000000 0.000000
vn 0.000000 0.000000 0.000000
vn 0.000000 0.000000 0.000000
vn 0.000000 0.000000 0.000000
vn 0.000000 0.000000 0.000000
vn 0.000000 0.000000 0.000000
vn 0.000000 0.000000 0.000000
vn 0.000000 0.000000 0.000000
vn 0.000000 0.000000 0.000000
vn 0.000000 0.000000 0.000000
vn 0.000000 0.000000 0.000000
vn 0.000000 0.000000 0.000000
vn 0.000000 0.000000 0.000000
vn 0.000000 0.000000 0.000000
vn 0.000000 0.000000 0.000000
vn 0.000000 0.000000 0.000000
vn 0.000000 0.000000 0.000000
vn 0.000000 0.000000 0.000000
vn 0.000000 0.000000 0.000000
vn 0.000000 0.000000 0.000000
s 1
g glass
usemtl initialShadingGroup
f 13/13/1 14/14/2 15/15/3 16/16/4
f 14/14/2 17/17/5 18/18/6 15/15/3
s 2
f 19/7/7 20/10/8 21/9/9 22/8/10
f 22/8/10 21/9/9 23/12/11 24/11/12
s off
f 19/1/13 22/5/14 14/14/15 13/13/16
f 21/6/17 20/3/18 16/16/19 15/15/20
f 20/3/21 19/1/22 13/13/23 16/16/24
f 22/5/25 24/2/26 17/17/27 14/14/28
f 24/2/29 23/4/30 18/18/31 17/17/32
f 23/4/33 21/6/34 15/15/35 18/18/36
s 3
f 7/19/37 10/22/38 9/21/39 8/20/40
f 8/20/40 9/21/39 12/24/41 11/23/42
s 4
f 1/25/43 5/28/44 6/27/45 3/26/46
f 5/28/44 2/30/47 4/29/48 6/27/45
s off
f 1/31/49 7/19/50 8/20/51 5/32/52
f 6/33/53 9/21/54 10/22/55 3/34/56
f 3/34/57 10/22/58 7/19/59 1/31/60
f 5/32/61 8/20/62 11/23/63 2/35/64
f 2/35/65 11/23/66 12/24/67 4/36/68
f 4/36/69 12/24/70 9/21/71 6/33/72
